<?xml version="1.0" standalone="no"?>
<!DOCTYPE svg PUBLIC "-//W3C//DTD SVG 20010904//EN"
 "http://www.w3.org/TR/2001/REC-SVG-20010904/DTD/svg10.dtd">
<svg version="1.0" xmlns="http://www.w3.org/2000/svg"
 width="395.000000pt" height="338.000000pt" viewBox="0 0 395.000000 338.000000"
 preserveAspectRatio="xMidYMid meet">

<g transform="translate(0.000000,338.000000) scale(0.100000,-0.100000)"
fill="#000000" stroke="none">
<path d="M0 1690 l0 -1690 1975 0 1975 0 0 1690 0 1690 -1975 0 -1975 0 0
-1690z m2033 1126 c21 -8 48 -22 59 -33 18 -16 58 -83 58 -98 0 -3 -16 -5 -36
-5 -26 0 -43 8 -65 30 -51 51 -132 52 -185 3 -28 -26 -88 -41 -98 -25 -3 4 7
28 21 51 45 76 154 110 246 77z m-596 -416 c50 -17 66 -29 89 -63 15 -23 48
-69 74 -102 26 -33 56 -73 66 -90 l19 -30 -35 25 c-19 13 -62 45 -95 71 -153
119 -300 144 -450 75 -61 -28 -156 -121 -186 -182 -14 -30 -24 -42 -29 -34 -4
7 -13 9 -19 6 -6 -4 -11 -2 -11 4 0 7 -6 8 -19 0 -30 -16 -31 -13 -16 37 17
56 73 140 125 187 130 117 319 154 487 96z m1313 14 c37 -8 94 -31 127 -50 73
-43 158 -133 189 -199 32 -71 34 -88 7 -90 -13 -1 -23 3 -23 9 0 6 -5 4 -10
-4 -9 -13 -10 -13 -10 0 0 11 -2 12 -8 3 -5 -8 -23 11 -52 54 -120 178 -326
236 -510 143 -30 -15 -84 -51 -120 -80 -36 -29 -82 -63 -102 -76 -43 -27 -121
-56 -112 -42 4 7 0 7 -12 0 -25 -13 -84 -13 -84 -1 0 6 -6 7 -12 2 -7 -4 -42
-8 -78 -9 l-65 -1 -17 36 c-9 20 -15 37 -14 39 2 1 27 -3 56 -9 117 -25 217
10 360 126 58 47 129 98 158 112 107 52 213 64 332 37z m-686 -978 c42 -24 93
-97 81 -116 -4 -6 -10 -8 -15 -5 -5 3 -11 1 -15 -5 -4 -6 -29 6 -62 30 -44 31
-65 40 -97 40 -41 0 -80 -19 -103 -51 -9 -12 -23 -15 -50 -12 -20 2 -39 6 -41
8 -2 2 6 21 18 42 22 41 70 78 116 93 44 14 122 3 168 -24z m-1647 -936 c45
-20 93 -62 93 -80 0 -6 -15 -17 -33 -26 -32 -15 -35 -15 -72 10 -45 31 -100
34 -151 10 -42 -20 -64 -59 -64 -114 0 -32 7 -48 34 -78 32 -35 38 -37 94 -37
48 0 67 5 92 24 31 23 34 23 66 8 42 -21 37 -36 -23 -77 -80 -53 -179 -54
-260 -4 -153 95 -120 321 55 374 48 15 125 10 169 -10z m426 9 c114 -31 179
-174 128 -284 -95 -205 -411 -140 -411 85 0 144 136 240 283 199z m426 -119
c57 -72 107 -127 112 -124 5 3 9 61 9 130 l0 124 45 0 45 0 0 -210 0 -210 -48
0 -47 0 -105 125 c-57 69 -108 125 -112 125 -5 0 -8 -42 -8 -94 0 -51 -3 -108
-6 -125 -6 -28 -10 -31 -44 -31 l-37 0 -6 83 c-4 45 -7 139 -7 210 l0 127 53
0 52 -1 104 -129z m512 1 c57 -71 107 -127 112 -124 4 2 7 60 7 129 l0 124 50
0 50 0 0 -210 0 -210 -52 1 -53 0 -104 125 c-57 68 -108 124 -113 124 -4 0 -8
-56 -8 -125 l0 -125 -45 0 -45 0 0 73 c0 41 -3 135 -7 210 l-6 137 55 0 55 0
104 -129z m637 87 l-3 -43 -112 -3 -113 -3 0 -39 0 -40 96 0 95 0 -3 -37 -3
-38 -92 -3 -93 -3 0 -44 0 -45 110 0 110 0 0 -40 0 -40 -155 0 -155 0 0 53 c0
28 -3 123 -7 210 l-6 157 167 0 167 0 -3 -42z m382 21 c51 -23 90 -56 90 -76
0 -7 -15 -20 -33 -29 -32 -15 -35 -15 -73 11 -33 23 -47 26 -93 22 -47 -3 -59
-9 -88 -40 -54 -60 -43 -138 26 -184 55 -37 124 -30 176 18 20 17 21 17 53 -2
17 -12 32 -25 32 -29 0 -11 -55 -52 -97 -74 -37 -19 -125 -21 -174 -4 -127 42
-183 187 -116 300 56 97 189 136 297 87z m560 -24 l0 -44 -77 -3 -78 -3 -3
-163 -2 -162 -45 0 -45 0 -2 163 -3 162 -75 5 -74 5 -4 43 -3 42 205 0 206 0
0 -45z m150 -81 c0 -139 12 -183 56 -203 63 -28 124 -2 149 63 14 35 16 68 13
155 l-3 111 47 0 48 0 0 -124 c0 -133 -13 -191 -53 -235 -55 -60 -172 -79
-247 -41 -80 41 -109 124 -110 313 l0 87 50 0 50 0 0 -126z"/>
<path d="M703 410 c-61 -37 -79 -108 -43 -167 52 -86 184 -81 232 8 22 41 22
59 4 104 -29 68 -126 96 -193 55z"/>
</g>
</svg>
